<mxfile host="app.diagrams.net" modified="2024-04-10T15:17:13.490Z" agent="Mozilla/5.0 (Macintosh; Intel Mac OS X 10_15_7) AppleWebKit/537.36 (KHTML, like Gecko) Chrome/123.0.0.0 Safari/537.36 Edg/123.0.0.0" version="24.2.1" etag="cq-e0lkLdd4P5CuDrYM8" type="github">
  <diagram name="Page-1" id="6GvLQ_o-XJOepEyGi9sc">
    <mxGraphModel>
      <root>
        <mxCell id="0" />
        <mxCell id="1" parent="0" />
      </root>
    </mxGraphModel>
  </diagram>
</mxfile>
